<?xml version="1.0" encoding="UTF-8" standalone="no"?>
<!-- Created with Inkscape (http://www.inkscape.org/) -->

<svg
   width="55.978367mm"
   height="42.39341mm"
   viewBox="0 0 55.978367 42.39341"
   version="1.1"
   id="svg20499"
   inkscape:version="1.2.1 (9c6d41e410, 2022-07-14)"
   sodipodi:docname="logo_joontega_3.svg"
   xmlns:inkscape="http://www.inkscape.org/namespaces/inkscape"
   xmlns:sodipodi="http://sodipodi.sourceforge.net/DTD/sodipodi-0.dtd"
   xmlns="http://www.w3.org/2000/svg"
   xmlns:svg="http://www.w3.org/2000/svg">
  <sodipodi:namedview
     id="namedview20501"
     pagecolor="#ffffff"
     bordercolor="#000000"
     borderopacity="0.25"
     inkscape:showpageshadow="2"
     inkscape:pageopacity="0.0"
     inkscape:pagecheckerboard="0"
     inkscape:deskcolor="#d1d1d1"
     inkscape:document-units="mm"
     showgrid="false"
     inkscape:zoom="1.1893044"
     inkscape:cx="47.506761"
     inkscape:cy="42.882209"
     inkscape:window-width="1920"
     inkscape:window-height="1137"
     inkscape:window-x="-8"
     inkscape:window-y="-8"
     inkscape:window-maximized="1"
     inkscape:current-layer="layer1" />
  <defs
     id="defs20496" />
  <g
     inkscape:label="Layer 1"
     inkscape:groupmode="layer"
     id="layer1"
     transform="translate(-5.2350377,-1.5538799)">
    <g
       aria-label=" M"
       id="text1571-3-6-4"
       style="font-size:3.175px;font-family:'Mundbind NL DEMO';-inkscape-font-specification:'Mundbind NL DEMO';fill:#878787;fill-opacity:1;stroke:none;stroke-width:0.264583;stroke-opacity:1"
       transform="matrix(1.3956483,0,0,1.3956483,-136.43342,-332.58961)">
      <path
         d="m 117.00117,261.17081 c 0.254,-0.0254 0.254,0 0.2794,-0.5588 0.0508,-0.4064 0.1524,-0.6096 0.381,-1.397 0.0762,-0.3048 0.127,-0.5842 0.127,-0.7112 v -0.0508 c 0,-0.1016 0.0508,-0.3302 0.1016,-0.5588 l 0.8128,-4.191 0.3048,0.4572 0.1778,0.508 1.397,6.8072 c 0.1016,-0.0254 0.254,-0.0508 0.4318,-0.0508 0.4318,0 1.0668,0.0762 1.8288,0.0762 1.143,0 1.7526,-0.0254 1.905,-0.1016 0.1778,-0.0254 0.3048,-0.0254 0.3556,-0.0254 l 0.0254,-0.0762 -0.0254,-0.127 0.4064,-1.8288 c 0.0254,-0.1524 1.0922,-4.572 1.397,-6.4516 0.889,3.2004 1.3208,6.0198 1.8288,8.3058 l 5.1816,-0.3556 -5.1816,-16.002 c -0.635,-1.524 -1.7526,-2.032 -1.9812,-2.032 -0.8128,0 -1.2192,1.016 -1.905,2.2606 -0.127,0.381 -1.27,4.5974 -2.286,8.255 -1.778,-5.5372 -4.4704,-10.1092 -5.588,-10.1092 -0.1016,0 -0.2032,0.0508 -0.2794,0.1524 -0.0762,0 -0.1778,0.0762 -0.254,0.1016 -0.2032,0.127 -0.2794,0.3302 -0.508,0.9398 -0.1016,0.3048 -0.2286,0.7366 -0.3302,0.9398 -0.0254,0.1778 -0.1524,1.0668 -0.254,1.3208 l -0.3048,1.0668 -0.9906,6.0706 c -0.0508,0.3048 -0.2032,0.7366 -0.254,0.9652 -0.0254,0.254 -0.1524,0.7112 -0.2286,0.9906 -0.0762,0.3302 -0.127,0.7366 -0.2032,0.9144 -0.0254,0.254 -0.0762,0.5842 -0.1524,0.7874 -0.254,1.1938 -0.635,3.2766 -0.635,3.4798 v 0.127 z"
         id="path1814-8-6-3"
         style="fill:#878787;fill-opacity:1;stroke:none;stroke-opacity:1" />
    </g>
    <g
       aria-label=" M"
       id="text1571-6-7-9-3"
       style="font-size:3.175px;font-family:'Mundbind NL DEMO';-inkscape-font-specification:'Mundbind NL DEMO';fill:#8ddfff;fill-opacity:1;stroke:#2ec0f9;stroke-width:0.429908;stroke-dasharray:none;stroke-opacity:1"
       transform="matrix(1.3956483,0,0,1.3956483,-160.22767,-353.28354)">
      <path
         d="m 130.76801,272.82474 c 0.254,-0.0254 0.254,0 0.2794,-0.5588 0.0508,-0.4064 0.1524,-0.6096 0.381,-1.397 0.0762,-0.3048 0.127,-0.5842 0.127,-0.7112 v -0.0508 c 0,-0.1016 0.0508,-0.3302 0.1016,-0.5588 l 0.8128,-4.191 0.3048,0.4572 0.1778,0.508 1.397,6.8072 c 0.1016,-0.0254 0.254,-0.0508 0.4318,-0.0508 0.4318,0 1.0668,0.0762 1.8288,0.0762 1.143,0 1.7526,-0.0254 1.905,-0.1016 0.1778,-0.0254 0.3048,-0.0254 0.3556,-0.0254 l 0.0254,-0.0762 -0.0254,-0.127 0.4064,-1.8288 c 0.0254,-0.1524 1.0922,-4.572 1.397,-6.4516 0.889,3.2004 1.3208,6.0198 1.8288,8.3058 l 5.1816,-0.3556 -5.1816,-16.002 c -0.635,-1.524 -1.7526,-2.032 -1.9812,-2.032 -0.8128,0 -1.2192,1.016 -1.905,2.2606 -0.127,0.381 -1.27,4.5974 -2.286,8.255 -1.778,-5.5372 -4.4704,-10.1092 -5.588,-10.1092 -0.1016,0 -0.2032,0.0508 -0.2794,0.1524 -0.0762,0 -0.1778,0.0762 -0.254,0.1016 -0.2032,0.127 -0.2794,0.3302 -0.508,0.9398 -0.1016,0.3048 -0.2286,0.7366 -0.3302,0.9398 -0.0254,0.1778 -0.1524,1.0668 -0.254,1.3208 l -0.3048,1.0668 -0.9906,6.0706 c -0.0508,0.3048 -0.2032,0.7366 -0.254,0.9652 -0.0254,0.254 -0.1524,0.7112 -0.2286,0.9906 -0.0762,0.3302 -0.127,0.7366 -0.2032,0.9144 -0.0254,0.254 -0.0762,0.5842 -0.1524,0.7874 -0.254,1.1938 -0.635,3.2766 -0.635,3.4798 v 0.127 z"
         id="path1811-5-5-4"
         style="fill:#8ddfff;fill-opacity:1;stroke:#2ec0f9;stroke-width:0.429908;stroke-dasharray:none;stroke-opacity:1" />
    </g>
    <g
       aria-label="Markus"
       id="text7431-98-7"
       style="font-size:9.60085px;font-family:Biryani;-inkscape-font-specification:Biryani;fill:#2ec0f9;stroke-width:0.360031;stroke-linejoin:bevel"
       transform="translate(-4.8191283,-13.284072)">
      <path
         d="m 16.841967,49.790701 v 7.277445 h -0.931282 v -5.86612 l -2.227397,3.101075 h -0.489644 l -2.208195,-3.101075 v 5.86612 h -0.931283 v -7.277445 h 1.017691 l 2.37141,3.321895 2.37141,-3.321895 z"
         id="path12541-1-8" />
      <path
         d="m 20.365475,51.758876 q 0.844875,0 1.286514,0.288025 0.441639,0.278425 0.585652,0.758467 0.144013,0.470442 0.144013,1.190506 v 3.072272 h -0.90248 v -0.528047 q -0.364833,0.345631 -0.729665,0.499244 -0.364832,0.153614 -0.78727,0.153614 -0.499244,0 -0.902479,-0.211219 -0.403236,-0.220819 -0.643257,-0.624055 -0.230421,-0.412837 -0.230421,-0.969686 0,-0.864077 0.537648,-1.334518 0.537647,-0.480043 1.449728,-0.480043 0.720064,0 1.296115,0.316828 -0.0096,-0.470441 -0.09601,-0.748866 -0.08641,-0.278425 -0.355231,-0.422437 -0.268824,-0.153614 -0.796871,-0.153614 h -0.710463 v -0.806471 z m -0.278425,4.656412 q 0.326429,0 0.681661,-0.153614 0.364832,-0.153613 0.710463,-0.46084 v -1.209708 q -0.537648,-0.268823 -1.171304,-0.268823 -0.508845,0 -0.854476,0.249622 -0.34563,0.240021 -0.34563,0.816072 0,0.537648 0.288025,0.78727 0.297627,0.240021 0.691261,0.240021 z"
         id="path12543-17-8" />
      <path
         d="m 26.596426,51.643665 v 0.844875 h -0.22082 q -0.825673,0 -1.603342,0.662459 v 3.917147 h -0.90248 v -5.30927 h 0.90248 v 0.595252 q 0.78727,-0.710463 1.603342,-0.710463 z"
         id="path12545-2-8" />
      <path
         d="m 29.227052,54.619929 -0.576051,0.585652 v 1.862565 h -0.90248 v -8.122319 h 0.90248 v 5.117253 l 2.169792,-2.236998 h 1.1329 l -2.112187,2.169792 2.419414,3.072272 h -1.094497 z"
         id="path12547-6-9" />
      <path
         d="m 37.762204,51.758876 v 5.30927 h -0.902479 v -0.56645 q -0.78727,0.68166 -1.622544,0.68166 -0.979287,0 -1.459329,-0.518446 -0.470442,-0.518446 -0.470442,-1.69935 v -3.206684 h 0.90248 v 3.206684 q 0,0.748866 0.249622,1.065694 0.259223,0.316828 0.90248,0.316828 0.748866,0 1.497733,-0.652858 v -3.936348 z"
         id="path12549-4-2" />
      <path
         d="m 41.103298,57.23136 q -0.585652,0 -1.036892,-0.09601 -0.45124,-0.09601 -0.940883,-0.326429 v -0.892879 q 0.912081,0.508845 1.977775,0.508845 0.537648,0 0.768068,-0.211219 0.240021,-0.220819 0.240021,-0.576051 0,-0.345631 -0.192017,-0.508845 -0.182416,-0.163214 -0.604853,-0.278425 l -0.624055,-0.153613 q -0.67206,-0.163215 -1.056094,-0.518446 -0.384034,-0.355232 -0.384034,-1.046493 0,-0.720064 0.470442,-1.123299 0.470441,-0.403236 1.382522,-0.403236 0.470442,0 0.873678,0.09601 0.403235,0.08641 0.806471,0.249622 v 0.844874 q -0.393635,-0.182416 -0.777669,-0.278424 -0.384034,-0.10561 -0.873677,-0.10561 -0.508845,0 -0.739266,0.201618 -0.220819,0.192017 -0.220819,0.489644 0,0.326429 0.192017,0.499244 0.201618,0.163214 0.576051,0.259223 l 0.633656,0.144013 q 0.480042,0.11521 0.78727,0.288025 0.316828,0.172815 0.489643,0.489643 0.182416,0.307228 0.182416,0.825674 0,0.777668 -0.528047,1.200106 -0.518446,0.422437 -1.401724,0.422438 z"
         id="path12551-70-4" />
    </g>
    <g
       aria-label="Maal"
       id="text7431-3-5-2"
       style="font-size:9.60085px;font-family:Biryani;-inkscape-font-specification:Biryani;fill:#878787;fill-opacity:1;stroke-width:0.360031;stroke-linejoin:bevel"
       transform="translate(-4.8191283,-13.284072)">
      <path
         d="m 51.909689,49.790701 v 7.277445 h -0.931283 v -5.86612 l -2.227397,3.101075 H 48.261366 L 46.05317,51.202026 v 5.86612 h -0.931282 v -7.277445 h 1.01769 l 2.37141,3.321895 2.37141,-3.321895 z"
         id="path12554-2-9"
         style="fill:#878787;fill-opacity:1" />
      <path
         d="m 55.433197,51.758876 q 0.844874,0 1.286513,0.288025 0.44164,0.278425 0.585652,0.758467 0.144013,0.470442 0.144013,1.190506 v 3.072272 h -0.90248 v -0.528047 q -0.364832,0.345631 -0.729664,0.499244 -0.364833,0.153614 -0.78727,0.153614 -0.499244,0 -0.90248,-0.211219 -0.403236,-0.220819 -0.643257,-0.624055 -0.23042,-0.412837 -0.23042,-0.969686 0,-0.864077 0.537647,-1.334518 0.537648,-0.480043 1.449729,-0.480043 0.720063,0 1.296114,0.316828 -0.0096,-0.470441 -0.09601,-0.748866 -0.08641,-0.278425 -0.355232,-0.422437 -0.268823,-0.153614 -0.79687,-0.153614 h -0.710463 v -0.806471 z m -0.278425,4.656412 q 0.326429,0 0.68166,-0.153614 0.364833,-0.153613 0.710463,-0.46084 v -1.209708 q -0.537647,-0.268823 -1.171304,-0.268823 -0.508845,0 -0.854475,0.249622 -0.345631,0.240021 -0.345631,0.816072 0,0.537648 0.288026,0.78727 0.297626,0.240021 0.691261,0.240021 z"
         id="path12556-8-1"
         style="fill:#878787;fill-opacity:1" />
      <path
         d="m 60.56965,51.758876 q 0.844875,0 1.286514,0.288025 0.441639,0.278425 0.585652,0.758467 0.144013,0.470442 0.144013,1.190506 v 3.072272 h -0.90248 v -0.528047 q -0.364833,0.345631 -0.729665,0.499244 -0.364832,0.153614 -0.78727,0.153614 -0.499244,0 -0.902479,-0.211219 -0.403236,-0.220819 -0.643257,-0.624055 -0.230421,-0.412837 -0.230421,-0.969686 0,-0.864077 0.537648,-1.334518 0.537647,-0.480043 1.449728,-0.480043 0.720064,0 1.296115,0.316828 -0.0096,-0.470441 -0.09601,-0.748866 -0.08641,-0.278425 -0.355231,-0.422437 -0.268824,-0.153614 -0.796871,-0.153614 h -0.710463 v -0.806471 z m -0.278425,4.656412 q 0.326429,0 0.681661,-0.153614 0.364832,-0.153613 0.710463,-0.46084 v -1.209708 q -0.537648,-0.268823 -1.171304,-0.268823 -0.508845,0 -0.854476,0.249622 -0.34563,0.240021 -0.34563,0.816072 0,0.537648 0.288025,0.78727 0.297627,0.240021 0.691261,0.240021 z"
         id="path12558-9-8"
         style="fill:#878787;fill-opacity:1" />
      <path
         d="m 65.427677,57.192957 q -0.720064,0 -1.036892,-0.288026 -0.316828,-0.288025 -0.316828,-0.969686 v -6.989418 h 0.90248 v 6.749397 q 0,0.384034 0.11521,0.528047 0.124812,0.134412 0.460841,0.134412 0.268824,0 0.480043,-0.05761 v 0.825673 q -0.384034,0.06721 -0.604854,0.06721 z"
         id="path12560-4-6"
         style="fill:#878787;fill-opacity:1" />
    </g>
  </g>
</svg>
