<?xml version="1.0" encoding="UTF-8" standalone="no"?>
<!-- Created with Inkscape (http://www.inkscape.org/) -->

<svg
   width="34.92873mm"
   height="31.032888mm"
   viewBox="0 0 34.928731 31.032888"
   version="1.1"
   id="svg20499"
   xmlns:xlink="http://www.w3.org/1999/xlink"
   xmlns="http://www.w3.org/2000/svg"
   xmlns:svg="http://www.w3.org/2000/svg">
  <defs
     id="defs20496">
    <linearGradient
       id="linearGradient1771">
      <stop
         style="stop-color:#9edfff;stop-opacity:1;"
         offset="0"
         id="stop1767" />
      <stop
         style="stop-color:#2ec0f9;stop-opacity:0.85294116;"
         offset="0.48757765"
         id="stop1769" />
    </linearGradient>
    <linearGradient
       xlink:href="#linearGradient1771"
       id="linearGradient1773"
       x1="131.25375"
       y1="254.66434"
       x2="192.5121"
       y2="297.10126"
       gradientUnits="userSpaceOnUse" />
    <linearGradient
       xlink:href="#linearGradient1771"
       id="linearGradient21763"
       gradientUnits="userSpaceOnUse"
       x1="131.25375"
       y1="254.66434"
       x2="192.5121"
       y2="297.10126" />
  </defs>
  <g
     id="layer1"
     transform="translate(-15.810273,-1.5538799)">
    <g
       aria-label=" M"
       id="text1571-3-6-4"
       style="font-size:3.175px;font-family:'Mundbind NL DEMO';-inkscape-font-specification:'Mundbind NL DEMO';fill:#a0a0a0;fill-opacity:1;stroke:#878787;stroke-width:0.429908;stroke-dasharray:none;stroke-dashoffset:0;stroke-opacity:1"
       transform="matrix(1.3956483,0,0,1.3956483,-136.56656,-332.70819)">
      <path
         d="m 117.00117,261.17081 c 0.254,-0.0254 0.254,0 0.2794,-0.5588 0.0508,-0.4064 0.1524,-0.6096 0.381,-1.397 0.0762,-0.3048 0.127,-0.5842 0.127,-0.7112 v -0.0508 c 0,-0.1016 0.0508,-0.3302 0.1016,-0.5588 l 0.8128,-4.191 0.3048,0.4572 0.1778,0.508 1.397,6.8072 c 0.1016,-0.0254 0.254,-0.0508 0.4318,-0.0508 0.4318,0 1.0668,0.0762 1.8288,0.0762 1.143,0 1.7526,-0.0254 1.905,-0.1016 0.1778,-0.0254 0.3048,-0.0254 0.3556,-0.0254 l 0.0254,-0.0762 -0.0254,-0.127 0.4064,-1.8288 c 0.0254,-0.1524 1.0922,-4.572 1.397,-6.4516 0.889,3.2004 1.3208,6.0198 1.8288,8.3058 l 5.1816,-0.3556 -5.1816,-16.002 c -0.635,-1.524 -1.7526,-2.032 -1.9812,-2.032 -0.8128,0 -1.2192,1.016 -1.905,2.2606 -0.127,0.381 -1.27,4.5974 -2.286,8.255 -1.778,-5.5372 -4.4704,-10.1092 -5.588,-10.1092 -0.1016,0 -0.2032,0.0508 -0.2794,0.1524 -0.0762,0 -0.1778,0.0762 -0.254,0.1016 -0.2032,0.127 -0.2794,0.3302 -0.508,0.9398 -0.1016,0.3048 -0.2286,0.7366 -0.3302,0.9398 -0.0254,0.1778 -0.1524,1.0668 -0.254,1.3208 l -0.3048,1.0668 -0.9906,6.0706 c -0.0508,0.3048 -0.2032,0.7366 -0.254,0.9652 -0.0254,0.254 -0.1524,0.7112 -0.2286,0.9906 -0.0762,0.3302 -0.127,0.7366 -0.2032,0.9144 -0.0254,0.254 -0.0762,0.5842 -0.1524,0.7874 -0.254,1.1938 -0.635,3.2766 -0.635,3.4798 v 0.127 z"
         id="path1814-8-6-3"
         style="fill:#a0a0a0;fill-opacity:1;stroke:#878787;stroke-width:0.429908;stroke-dasharray:none;stroke-dashoffset:0;stroke-opacity:1" />
    </g>
    <g
       aria-label=" M"
       id="text1571-6-7-9-3"
       style="font-size:3.175px;font-family:'Mundbind NL DEMO';-inkscape-font-specification:'Mundbind NL DEMO';fill:url(#linearGradient1773);fill-opacity:1;stroke:#2ec0f9;stroke-width:0.429908;stroke-dasharray:none;stroke-opacity:1"
       transform="matrix(1.3956483,0,0,1.3956483,-160.22767,-353.28354)">
      <path
         d="m 130.76801,272.82474 c 0.254,-0.0254 0.254,0 0.2794,-0.5588 0.0508,-0.4064 0.1524,-0.6096 0.381,-1.397 0.0762,-0.3048 0.127,-0.5842 0.127,-0.7112 v -0.0508 c 0,-0.1016 0.0508,-0.3302 0.1016,-0.5588 l 0.8128,-4.191 0.3048,0.4572 0.1778,0.508 1.397,6.8072 c 0.1016,-0.0254 0.254,-0.0508 0.4318,-0.0508 0.4318,0 1.0668,0.0762 1.8288,0.0762 1.143,0 1.7526,-0.0254 1.905,-0.1016 0.1778,-0.0254 0.3048,-0.0254 0.3556,-0.0254 l 0.0254,-0.0762 -0.0254,-0.127 0.4064,-1.8288 c 0.0254,-0.1524 1.0922,-4.572 1.397,-6.4516 0.889,3.2004 1.3208,6.0198 1.8288,8.3058 l 5.1816,-0.3556 -5.1816,-16.002 c -0.635,-1.524 -1.7526,-2.032 -1.9812,-2.032 -0.8128,0 -1.2192,1.016 -1.905,2.2606 -0.127,0.381 -1.27,4.5974 -2.286,8.255 -1.778,-5.5372 -4.4704,-10.1092 -5.588,-10.1092 -0.1016,0 -0.2032,0.0508 -0.2794,0.1524 -0.0762,0 -0.1778,0.0762 -0.254,0.1016 -0.2032,0.127 -0.2794,0.3302 -0.508,0.9398 -0.1016,0.3048 -0.2286,0.7366 -0.3302,0.9398 -0.0254,0.1778 -0.1524,1.0668 -0.254,1.3208 l -0.3048,1.0668 -0.9906,6.0706 c -0.0508,0.3048 -0.2032,0.7366 -0.254,0.9652 -0.0254,0.254 -0.1524,0.7112 -0.2286,0.9906 -0.0762,0.3302 -0.127,0.7366 -0.2032,0.9144 -0.0254,0.254 -0.0762,0.5842 -0.1524,0.7874 -0.254,1.1938 -0.635,3.2766 -0.635,3.4798 v 0.127 z"
         id="path1811-5-5-4"
         style="fill:url(#linearGradient21763);fill-opacity:1;stroke:#2ec0f9;stroke-width:0.429908;stroke-dasharray:none;stroke-opacity:1" />
    </g>
  </g>
</svg>
